<?xml version="1.0" encoding="UTF-8"?>
<svg id="Layer_1" data-name="Layer 1" xmlns="http://www.w3.org/2000/svg" viewBox="0 0 237.67 237.67">
  <defs>
    <style>
      .cls-1 {
        fill: none;
        stroke: #b3b3b3;
        stroke-miterlimit: 10;
        stroke-width: 5px;
      }
    </style>
  </defs>
  <polyline class="cls-1" points="23.3 6.98 23.3 52.45 68.01 52.45"/>
  <path class="cls-1" d="M61.16,88.57l54.14-22.24c.24-.1,.5-.1,.74,0l57.35,21.93c.85,.32,.86,1.52,.02,1.86l-55.57,22.56c-.24,.1-.51,.1-.75,0l-55.92-22.25c-.84-.33-.84-1.51-.01-1.85Z"/>
  <path class="cls-1" d="M60.54,89.51v69.27c.71,1.93,2.03,2.05,2.42,2.2l51.37,18.85c.65,.24,1.34-.24,1.34-.94V112.83"/>
  <path class="cls-1" d="M115.27,179.69l57.83-20.62c.39-.15,1.26-1.1,.93-1.68V89.16"/>
  <path class="cls-1" d="M3.22,105.94c-.47,4.24-.72,8.54-.72,12.9,0,64.25,52.09,116.34,116.34,116.34s116.34-52.09,116.34-116.34S183.09,2.5,118.84,2.5C79.27,2.5,44.32,22.26,23.3,52.45"/>
</svg>