<?xml version="1.0" encoding="UTF-8"?>
<svg id="Layer_1" data-name="Layer 1" xmlns="http://www.w3.org/2000/svg" viewBox="0 0 254.55 223.39">
  <defs>
    <style>
      .cls-1 {
        fill: none;
        stroke: #b3b3b3;
        stroke-miterlimit: 10;
        stroke-width: 4px;
      }
    </style>
  </defs>
  <path class="cls-1" d="M235.84,198.29h-2.92c-.19-12.37-10.29-22.34-22.71-22.34s-22.55,10.01-22.7,22.43l-118.57,.21c-.04-12.51-10.2-22.64-22.72-22.64s-22.71,10.17-22.71,22.72h-1.78S-1,194.88,2.41,163.05c0,0-1.9-26.53,17.81-25.01,0,0,14.02-.38,28.8-16.29,0,0,14.02-14.03,25.39-12.13l52.67-.18s18.19-1.34,31.45,11.55l20.85,15.24s8.33,8.63,38.27,11.66c0,0,34.11-1.51,34.48,28.05,0,0,4.55,26.14-16.29,22.35Z"/>
  <path class="cls-1" d="M68.94,198.59v.08c0,12.55-10.17,22.72-22.72,22.72s-22.71-10.17-22.71-22.72,10.17-22.72,22.71-22.72,22.68,10.13,22.72,22.64Z"/>
  <path class="cls-1" d="M232.93,198.59v.08c0,12.55-10.17,22.72-22.72,22.72s-22.71-10.17-22.71-22.72c0-.1,0-.19,.01-.29,.15-12.42,10.26-22.43,22.7-22.43s22.52,9.97,22.71,22.35c.01,.1,.01,.19,.01,.29Z"/>
  <circle class="cls-1" cx="45.09" cy="198.67" r="8.72"/>
  <circle class="cls-1" cx="210.22" cy="198.67" r="8.72"/>
  <path class="cls-1" d="M2.06,160.78H13.91c.55,0,1,.45,1,1v13.17c0,.55-.45,1-1,1H2.53l-.47-15.17Z"/>
  <path class="cls-1" d="M91.08,123.75v29.28c0,.55-.45,1-1,1H47.88s-12.81,2.12-7.77-9.75c.06-.15,.16-.28,.29-.39l16.96-14.2s8.18-10.45,32.86-6.95c.49,.07,.86,.5,.86,.99Z"/>
  <path class="cls-1" d="M107.41,121.86c5.56-1.13,39.45-6.19,71.32,30.67,.56,.65,.09,1.65-.76,1.65H107.62c-.55,0-1-.45-1-1v-30.34c0-.47,.33-.88,.79-.98Z"/>
  <path class="cls-1" d="M252.13,175.94h-18.2c-.55,0-1-.44-1-.99v-11.66c0-.55,.45-1,1-1h14.83"/>
  <line class="cls-1" x1="104.73" y1="171.39" x2="117.99" y2="171.39"/>
  <path class="cls-1" d="M87.29,91.05V19.05H247.35c.55,0,1-.45,1-1V3c0-.55-.45-1-1-1H79.58c-.55,0-1,.45-1,1v15.05c0,.55,.45,1,1,1h7.72"/>
  <line class="cls-1" x1="237.74" y1="137.59" x2="237.74" y2="19.05"/>
  <path class="cls-1" d="M99.7,55.15l8.55-18.46c.16-.35,.52-.58,.91-.58h105.18c.4,0,.76,.24,.92,.61l7.86,18.46c.28,.66-.2,1.39-.92,1.39H100.61c-.73,0-1.21-.76-.91-1.42Z"/>
  <path class="cls-1" d="M100.61,56.57s10.18,31.83,24.58,0"/>
  <path class="cls-1" d="M125.19,56.57s11.75,31.83,26.15,0"/>
  <path class="cls-1" d="M150.39,56.57s11.75,31.83,26.15,0"/>
  <path class="cls-1" d="M176.54,56.57s11.75,31.83,26.15,0"/>
  <path class="cls-1" d="M201.5,58.16s11.99,30.24,20.7-1.59"/>
  <path class="cls-1" d="M211.85,71.14v37.26c0,.55-.45,1-1,1H111.36v-38.26"/>
</svg>