<?xml version="1.0" encoding="UTF-8"?>
<svg id="Layer_1" data-name="Layer 1" xmlns="http://www.w3.org/2000/svg" viewBox="0 0 238.99 239.1">
  <defs>
    <style>
      .cls-1 {
        fill: none;
        stroke: #b3b3b3;
        stroke-miterlimit: 10;
        stroke-width: 4px;
      }
    </style>
  </defs>
  <path class="cls-1" d="M39.94,120.52S.53,155.38,2.04,169.03l13.14,33.35s4.04,10.97,18.69,5.91c0,0,20.21-3.89,22.23-14l-15.66-26.28s21.63,43.36,36.38,37.39l37.27-11.37s33.44-9.01,45.08-10.86c14.49-2.31,25.77-4.04,24.76,13.14l-14.65-.51,35.37,1.01s8.53,15.79-12.63,17.68h-35.37s-16.89-1.99-52.71,13.64c0,0-49.72,16.16-65.52-20.15-.43-.99-1.91-.69-1.91,.39l-.11,27.71c0,.55,.45,1,1,1h99.58c.55,0,1-.45,1-1v-19.96"/>
  <path class="cls-1" d="M33.87,55.3s-10.11,18.23,8.08,26.82c0,0,14.15,33.35,38.91,26.78,0,0,29.88-4.01,29.37-34.33,0,0,.44-19.23-3.61-37.93"/>
  <path class="cls-1" d="M109.16,57.11c22.07,5.43,27.32-4.18,28.52-5.14,.08-.07,.33-.21,.39-.3,6.46-10.04-.08-17.05-.08-17.05-4.55-5.5-11.67-6.42-12.96-6.55-.13-.01-.26,0-.4,0-10.53-.3-17.08,8.81-18.48,10.33-.15,.16-.26,.34-.38,.52-9.12,13.67-10.16,16.98-29.92,17.91-.37,.02-.71,.15-1.08,.14l-22.2-.09-10.46-.04c-.1,0-.2,.01-.3,.02-17.82,.36-15.35-20.23-15.35-20.23,0,0,1.14-30.38,29.27-34.64,0,0,21.25-.08,23.78,.38,0,0,26.43,1.95,24.56,26.01-.05,.62-.67,1.04-1.27,.86-6.03-1.81-33.92-9.18-40.44,7.11-.07,.18-.08,.38-.16,.55-1.16,2.51-6.47,15.02-9.63,19.98"/>
  <path class="cls-1" d="M68.63,2.44s-15.55,10.03-14.04,27.17"/>
  <line class="cls-1" x1="102.79" y1="29.25" x2="114.48" y2="30.84"/>
  <path class="cls-1" d="M50.55,100.82l-15.89,14.45c-.43,.39-.44,1.05-.03,1.45l19.19,18.81c.38,.37,.98,.38,1.38,.02l16.83-15.43c.92-.84,.85-2.31-.14-3.07l-21.34-16.24Z"/>
  <path class="cls-1" d="M204.65,196.82h31.34c.55,0,1-.45,1-1V89.69c0-.55-.45-1-1-1H126.83c-.55,0-1,.45-1,1v100.45"/>
  <path class="cls-1" d="M198.08,89.72v27.12c0,.76-.81,1.24-1.48,.88l-15.19-8.29-13.64,8.19c-.67,.4-1.51-.08-1.51-.86v-27.03"/>
  <line class="cls-1" x1="145.03" y1="157.91" x2="154.13" y2="157.91"/>
  <line class="cls-1" x1="145.03" y1="170.04" x2="162.72" y2="170.04"/>
  <path class="cls-1" d="M124.69,119.22l-14.46-.72-12.7-14.38-15.2,30.15c-.38,.76-1.48,.72-1.81-.06l-8.64-17.16"/>
  <path class="cls-1" d="M90.29,118.5l9.95,12.12c.42,.51,1.21,.48,1.59-.06l8.41-12.05"/>
</svg>