<?xml version="1.0" encoding="UTF-8"?>
<svg id="Layer_1" data-name="Layer 1" xmlns="http://www.w3.org/2000/svg" viewBox="0 0 248.65 259.23">
  <defs>
    <style>
      .cls-1 {
        fill: none;
        stroke: #b3b3b3;
        stroke-miterlimit: 10;
        stroke-width: 5px;
      }
    </style>
  </defs>
  <circle class="cls-1" cx="120.68" cy="59.91" r="57.41"/>
  <path class="cls-1" d="M199.62,150.62S58.48,36.65,2.54,240.67c-.17,.64,.31,1.27,.97,1.27H141.26"/>
  <path class="cls-1" d="M176.42,168.58l11.8,20.74c.24,.41,.15,.94-.21,1.25l-7.58,6.59c-.32,.27-.43,.71-.28,1.1,1.56,4.16,11.16,27.25,35.15,37.37,.37,.16,.8,.07,1.09-.2l8.45-8.11c.32-.31,.82-.37,1.2-.14l19.42,11.51c.25,.15,.43,.39,.48,.68,.39,2.28,1.43,12.54-10.13,17.28-.13,.05-.26,.08-.39,.08-4.28-.01-75.46-1.32-77.1-76.04,0-.18,.04-.37,.13-.53,.97-1.72,7.02-11.71,17.06-12.1,.37-.01,.72,.19,.91,.51Z"/>
</svg>