<?xml version="1.0" encoding="utf-8"?>
<!-- Generator: Adobe Illustrator 27.0.1, SVG Export Plug-In . SVG Version: 6.00 Build 0)  -->
<svg version="1.1" id="Layer_1" xmlns="http://www.w3.org/2000/svg" xmlns:xlink="http://www.w3.org/1999/xlink" x="0px" y="0px"
	 viewBox="0 0 500 500" style="enable-background:new 0 0 500 500;" xml:space="preserve">
<style type="text/css">
	.st0{fill:#B17789;stroke:#000000;stroke-width:3;stroke-miterlimit:10;}
	.st1{fill:#FFFFFF;stroke:#000000;stroke-width:4;stroke-miterlimit:10;}
	.st2{fill:none;}
</style>
<circle class="st0" cx="247.67" cy="228.12" r="159.43"/>
<path class="st1" d="M257.2,239.12l16.11-27.52l-3.36-19.13l25.5-36.58l-16.11-10.07l-26.04,36.24
	c-19.33,8.05-22.95,10.07-22.95,10.07l-26.17,46.98H257.2z"/>
<polygon class="st1" points="284.35,228.12 264.87,342.22 183.68,342.22 164.21,228.12 "/>
<polygon class="st1" points="195.4,228.12 181.31,277.79 227.28,277.79 213.31,228.12 "/>
<line class="st1" x1="277.29" y1="144.65" x2="293.63" y2="154.69"/>
<path id="SVGID_x5F_1_x5F_" class="st2" d="M227.28,387.85c-74.5,0-134.9-60.4-134.9-134.9s60.4-134.9,134.9-134.9
	s134.9,60.4,134.9,134.9S301.78,387.85,227.28,387.85z"/>
<text><textPath  xlink:href="#SVGID_x5F_1_x5F_" startOffset="595.9437%">
<tspan  style="font-family:'InkFree'; font-size:48px;">Vanier Wine</tspan></textPath>
</text>
<line class="st1" x1="272.99" y1="154.69" x2="289.1" y2="165.01"/>
</svg>
