<?xml version="1.0" encoding="utf-8"?>
<!-- Generator: Adobe Illustrator 27.0.1, SVG Export Plug-In . SVG Version: 6.00 Build 0)  -->
<svg version="1.1" id="Layer_1" xmlns="http://www.w3.org/2000/svg" xmlns:xlink="http://www.w3.org/1999/xlink" x="0px" y="0px"
	 viewBox="0 0 500 500" style="enable-background:new 0 0 500 500;" xml:space="preserve">
<style type="text/css">
	.st0{fill:none;}
	.st1{fill:none;stroke:#000000;stroke-width:4;stroke-miterlimit:10;}
	.st2{fill:#FFFFFF;stroke:#000000;stroke-width:4;stroke-miterlimit:10;}
</style>
<path id="SVGID_x5F_1_x5F_" class="st0" d="M227.28,387.85c-74.5,0-134.9-60.4-134.9-134.9s60.4-134.9,134.9-134.9
	s134.9,60.4,134.9,134.9S301.78,387.85,227.28,387.85z"/>
<text><textPath  xlink:href="#SVGID_x5F_1_x5F_" startOffset="595.9437%">
<tspan  style="font-family:'InkFree'; font-size:48px;">Vanier Wine</tspan></textPath>
</text>
<path class="st1" d="M261.1,238.93l9.67-16.52l-3.36-19.13l25.5-36.58l-16.11-10.07l-26.04,36.24
	c-19.33,8.05-22.95,10.07-22.95,10.07l-20.05,35.98H261.1z"/>
<polygon class="st1" points="281.81,238.93 262.34,353.03 181.15,353.03 161.68,238.93 "/>
<polygon class="st1" points="192.86,238.93 178.77,288.6 224.74,288.6 210.77,238.93 "/>
<line class="st2" x1="274.75" y1="155.47" x2="291.09" y2="165.5"/>
<line class="st2" x1="269.84" y1="166.34" x2="286.18" y2="176.37"/>
</svg>
